# Blender v2.63 (sub 0) OBJ File: ''
# www.blender.org
o Mesh_Symmetrie_1
v -0.030000 -0.057860 0.219473
v -0.030000 0.018880 0.572211
v -0.000000 0.018880 0.572211
v -0.030000 -0.060262 0.207072
v -0.000000 -0.057860 0.219473
v -0.030000 -0.062131 0.194405
v -0.000000 -0.060262 0.207072
v -0.030000 -0.063465 0.181474
v -0.000000 -0.062131 0.194405
v -0.030000 -0.064266 0.168278
v -0.000000 -0.063465 0.181474
v -0.030000 -0.064533 0.154817
v -0.000000 -0.064266 0.168278
v -0.030000 -0.064533 -0.000000
v -0.000000 -0.064533 0.154817
v -0.030000 -0.247333 -0.000000
v -0.000000 -0.064533 -0.000000
v -0.030000 -0.247333 0.246308
v -0.000000 -0.247333 -0.000000
v -0.030000 -0.034018 0.572211
v -0.000000 -0.247333 0.246308
v -0.000000 -0.034018 0.572211
v -0.030000 -0.057860 -0.219473
v 0.000000 -0.057860 -0.219473
v 0.000000 0.018880 -0.572211
v -0.030000 -0.060262 -0.207072
v 0.000000 -0.060262 -0.207072
v -0.030000 -0.062131 -0.194405
v 0.000000 -0.062131 -0.194405
v -0.030000 -0.063465 -0.181474
v 0.000000 -0.063465 -0.181474
v -0.030000 -0.064266 -0.168278
v 0.000000 -0.064266 -0.168278
v -0.030000 -0.064533 -0.154817
v 0.000000 -0.064533 -0.154817
v -0.030000 -0.247333 -0.246308
v -0.000000 -0.247333 -0.246308
v -0.030000 -0.034018 -0.572211
v 0.000000 -0.034018 -0.572211
v -0.030000 0.018880 -0.572211
v -0.000000 -0.034018 0.572211
v -0.000000 -0.057860 0.219473
v -0.000000 0.018880 0.572211
v -0.000000 -0.247333 0.246308
v -0.000000 -0.060262 0.207072
v -0.000000 -0.062131 0.194405
v -0.000000 -0.063465 0.181474
v -0.000000 -0.064266 0.168278
v -0.000000 -0.064533 0.154817
v -0.000000 -0.247333 -0.000000
v -0.000000 -0.064533 -0.000000
v 0.000000 -0.057860 -0.219473
v 0.000000 -0.034018 -0.572211
v 0.000000 0.018880 -0.572211
v 0.000000 -0.060262 -0.207072
v -0.000000 -0.247333 -0.246308
v 0.000000 -0.062131 -0.194405
v 0.000000 -0.063465 -0.181474
v 0.000000 -0.064266 -0.168278
v 0.000000 -0.064533 -0.154817
v -0.030000 -0.057860 0.219473
v -0.030000 -0.247333 0.246308
v -0.030000 -0.034018 0.572211
v -0.030000 0.018880 0.572211
v -0.030000 -0.064533 0.154817
v -0.030000 -0.247333 -0.000000
v -0.030000 -0.064266 0.168278
v -0.030000 -0.063465 0.181474
v -0.030000 -0.062131 0.194405
v -0.030000 -0.060262 0.207072
v -0.030000 -0.064533 -0.000000
v -0.030000 -0.247333 -0.246308
v -0.030000 -0.057860 -0.219473
v -0.030000 -0.034018 -0.572211
v -0.030000 0.018880 -0.572211
v -0.030000 -0.064533 -0.154817
v -0.030000 -0.064266 -0.168278
v -0.030000 -0.063465 -0.181474
v -0.030000 -0.062131 -0.194405
v -0.030000 -0.060262 -0.207072
vt 0.248540 0.000000
vt 0.000000 0.000000
vt 0.000000 1.000000
vt 0.257237 0.000000
vt 0.248540 1.000000
vt 0.266052 0.000000
vt 0.257237 1.000000
vt 0.275003 0.000000
vt 0.266052 1.000000
vt 0.284105 0.000000
vt 0.275003 1.000000
vt 0.293375 0.000000
vt 0.284105 1.000000
vt 0.399965 0.000000
vt 0.293375 1.000000
vt 0.525823 0.000000
vt 0.399965 1.000000
vt 0.695405 0.000000
vt 0.525823 1.000000
vt 0.963580 0.000000
vt 0.695405 1.000000
vt 1.000000 0.000000
vt 0.963580 1.000000
vt 1.000000 1.000000
vn 0.000000 0.977143 -0.212583
vn 0.000000 0.981753 -0.190160
vn 0.000000 0.989289 -0.145968
vn 0.000000 0.994721 -0.102618
vn 0.000000 0.998163 -0.060589
vn 0.000000 0.999803 -0.019831
vn 0.000000 1.000000 0.000000
vn 0.000000 -0.000000 -1.000000
vn -0.000000 -1.000000 0.000000
vn 0.000000 -0.836705 0.547653
vn 0.000000 -0.000000 1.000000
vn 0.000000 0.977143 0.212583
vn 0.000000 0.981753 0.190160
vn 0.000000 0.989289 0.145968
vn 0.000000 0.994721 0.102618
vn 0.000000 0.998163 0.060589
vn 0.000000 0.999803 0.019831
vn -0.000000 -0.836705 -0.547653
vn 1.000000 -0.000000 0.000000
vn -1.000000 0.000000 -0.000000
s off
f 1/1/1 2/2/1 3/3/1
f 4/4/2 1/1/2 5/5/2
f 6/6/3 4/4/3 7/7/3
f 8/8/4 6/6/4 9/9/4
f 10/10/5 8/8/5 11/11/5
f 12/12/6 10/10/6 13/13/6
f 14/14/7 12/12/7 15/15/7
f 16/16/8 14/14/8 17/17/8
f 18/18/9 16/16/9 19/19/9
f 20/20/10 18/18/10 21/21/10
f 2/22/11 20/20/11 22/23/11
f 23/1/12 24/5/12 25/3/12
f 26/4/13 27/7/13 24/5/13
f 28/6/14 29/9/14 27/7/14
f 30/8/15 31/11/15 29/9/15
f 32/10/16 33/13/16 31/11/16
f 34/12/17 35/15/17 33/13/17
f 14/14/7 17/17/7 35/15/7
f 16/16/11 19/19/11 17/17/11
f 36/18/9 37/21/9 19/19/9
f 38/20/18 39/23/18 37/21/18
f 40/22/8 25/24/8 39/23/8
f 41/3/19 42/3/19 43/3/19
f 44/3/19 45/3/19 42/3/19
f 41/3/19 44/3/19 42/3/19
f 44/3/19 46/3/19 45/3/19
f 44/3/19 47/3/19 46/3/19
f 44/3/19 48/3/19 47/3/19
f 44/3/19 49/3/19 48/3/19
f 50/3/19 51/3/19 49/3/19
f 44/3/19 50/3/19 49/3/19
f 52/3/19 53/3/19 54/3/19
f 55/3/19 56/3/19 52/3/19
f 56/3/19 53/3/19 52/3/19
f 57/3/19 56/3/19 55/3/19
f 58/3/19 56/3/19 57/3/19
f 59/3/19 56/3/19 58/3/19
f 60/3/19 56/3/19 59/3/19
f 51/3/19 50/3/19 60/3/19
f 50/3/19 56/3/19 60/3/19
f 61/3/20 62/3/20 63/3/20
f 64/3/20 61/3/20 63/3/20
f 65/3/20 66/3/20 62/3/20
f 67/3/20 65/3/20 62/3/20
f 68/3/20 67/3/20 62/3/20
f 69/3/20 68/3/20 62/3/20
f 70/3/20 69/3/20 62/3/20
f 61/3/20 70/3/20 62/3/20
f 65/3/20 71/3/20 66/3/20
f 72/3/20 73/3/20 74/3/20
f 73/3/20 75/3/20 74/3/20
f 66/3/20 76/3/20 72/3/20
f 76/3/20 77/3/20 72/3/20
f 77/3/20 78/3/20 72/3/20
f 78/3/20 79/3/20 72/3/20
f 79/3/20 80/3/20 72/3/20
f 80/3/20 73/3/20 72/3/20
f 71/3/20 76/3/20 66/3/20
f 5/5/1 1/1/1 3/3/1
f 7/7/2 4/4/2 5/5/2
f 9/9/3 6/6/3 7/7/3
f 11/11/4 8/8/4 9/9/4
f 13/13/5 10/10/5 11/11/5
f 15/15/6 12/12/6 13/13/6
f 17/17/7 14/14/7 15/15/7
f 19/19/8 16/16/8 17/17/8
f 21/21/9 18/18/9 19/19/9
f 22/23/10 20/20/10 21/21/10
f 3/24/11 2/22/11 22/23/11
f 40/2/12 23/1/12 25/3/12
f 23/1/13 26/4/13 24/5/13
f 26/4/14 28/6/14 27/7/14
f 28/6/15 30/8/15 29/9/15
f 30/8/16 32/10/16 31/11/16
f 32/10/17 34/12/17 33/13/17
f 34/12/7 14/14/7 35/15/7
f 14/14/11 16/16/11 17/17/11
f 16/16/9 36/18/9 19/19/9
f 36/18/18 38/20/18 37/21/18
f 38/20/8 40/22/8 39/23/8
