#  ==========================================================================
#  
#  Wavefront OBJ format exported by Red-i Productions' "Riptide Pro"
#     (a commercial plugin for Cinema 4D PC & Mac, R9.6 or later)
#  
#  Red-i Productions
#  http://skinprops.com
#  
#  ==========================================================================
o Mesh_W_rfel_3.001
v -0.05 0.04 0.45
v 0.05 0.04 0.45
v 0.05 -0.04 0.45
v -0.05 0.04 -0.45
v 0.05 0.04 -0.45
v 0.05 -0.04 -0.45
v -0.05 -0.04 -0.45
v -0.05 -0.04 0.45
# 8 vertices

vt 0.00000 0.00000
vt 0.00000 1.00000
vt 1.00000 1.00000
vt 1.00000 0.00000
# 4 texture coordinates

vn 0 0 1
vn 0 1 0
vn 0 -1 0
vn 0 0 -1
vn -1 0 0
vn 1 0 0
# 6 vertex normals

f 3/1/1 2/2/1 1/3/1
f 5/1/2 4/2/2 1/3/2
f 7/1/3 6/2/3 3/3/3
f 7/1/4 4/2/4 5/3/4
f 8/1/5 1/2/5 4/3/5
f 6/1/6 5/2/6 2/3/6
f 3/1/1 1/3/1 8/4/1
f 5/1/2 1/3/2 2/4/2
f 7/1/3 3/3/3 8/4/3
f 7/1/4 5/3/4 6/4/4
f 8/1/5 4/3/5 7/4/5
f 6/1/6 2/3/6 3/4/6
# 12 facets

