#  ==========================================================================
#  
#  Wavefront OBJ format exported by Red-i Productions' "Riptide Pro"
#     (a commercial plugin for Cinema 4D PC & Mac, R9.6 or later)
#  
#  Red-i Productions
#  http://skinprops.com
#  
#  ==========================================================================
o Mesh_W_rfel_3.001
v -0.07 0.04 -0.45
v 0.07 0.04 -0.45
v 0.07 -0.04 -0.45
v -0.07 0.04 0.45
v 0.07 0.04 0.45
v 0.07 -0.04 0.45
v -0.07 -0.04 0.45
v -0.07 -0.04 -0.45
# 8 vertices

vt 1.00000 1.00000
vt 0.00000 1.00000
vt 0.00000 0.00000
vt 1.00000 0.00000
# 4 texture coordinates

vn 0 0 -1
vn 0 1 0
vn 0 -1 0
vn 0 0 1
vn -1 0 0
vn 1 0 0
# 6 vertex normals

f 1/1/1 2/2/1 3/3/1
f 1/1/2 4/2/2 5/3/2
f 3/1/3 6/2/3 7/3/3
f 5/1/4 4/2/4 7/3/4
f 4/1/5 1/2/5 8/3/5
f 2/1/6 5/2/6 6/3/6
f 8/4/1 1/1/1 3/3/1
f 2/4/2 1/1/2 5/3/2
f 8/4/3 3/1/3 7/3/3
f 6/4/4 5/1/4 7/3/4
f 7/4/5 4/1/5 8/3/5
f 3/4/6 2/1/6 6/3/6
# 12 facets

o Connector
v -0.07 -0.299866 0.369386
v 0.07 -0.299866 0.369386
v 0.07 -0.281914 0.369386
v 0.015 -0.281914 0.369386
v 0.015 -0.051042 0.369386
v 0.07 -0.051042 0.369386
v 0.07 -0.0386843 0.369386
v -0.07 -0.0386843 0.369386
v -0.07 -0.051042 0.369386
v -0.015 -0.051042 0.369386
v -0.015 -0.281914 0.369386
v -0.07 -0.281914 0.369386
v -0.07 -0.299866 -0.369386
v 0.07 -0.299866 -0.369386
v 0.07 -0.281914 -0.369386
v 0.015 -0.281914 -0.369386
v 0.015 -0.051042 -0.369386
v 0.07 -0.051042 -0.369386
v 0.07 -0.0386843 -0.369386
v -0.07 -0.0386843 -0.369386
v -0.07 -0.051042 -0.369386
v -0.015 -0.051042 -0.369386
v -0.015 -0.281914 -0.369386
v -0.07 -0.281914 -0.369386
v -0.07 -0.299866 0.369386
v 0.07 -0.299866 0.369386
v 0.07 -0.281914 0.369386
v 0.015 -0.281914 0.369386
v 0.015 -0.051042 0.369386
v 0.07 -0.051042 0.369386
v 0.07 -0.0386843 0.369386
v -0.07 -0.0386843 0.369386
v -0.07 -0.051042 0.369386
v -0.015 -0.051042 0.369386
v -0.015 -0.281914 0.369386
v -0.07 -0.281914 0.369386
v -0.07 -0.299866 -0.369386
v 0.07 -0.299866 -0.369386
v 0.07 -0.281914 -0.369386
v 0.015 -0.281914 -0.369386
v 0.015 -0.051042 -0.369386
v 0.07 -0.051042 -0.369386
v 0.07 -0.0386843 -0.369386
v -0.07 -0.0386843 -0.369386
v -0.07 -0.051042 -0.369386
v -0.015 -0.051042 -0.369386
v -0.015 -0.281914 -0.369386
v -0.07 -0.281914 -0.369386
# 48 vertices

vt 0.00000 1.00000
vt 0.11867 1.00000
vt 0.11867 0.00000
vt 0.13389 1.00000
vt 0.13389 0.00000
vt 0.18051 1.00000
vt 0.18051 0.00000
vt 0.38557 1.00000
vt 0.38557 0.00000
vt 0.43219 1.00000
vt 0.43219 0.00000
vt 0.50000 1.00000
vt 0.50000 0.00000
vt 0.61867 1.00000
vt 0.61867 0.00000
vt 0.68648 1.00000
vt 0.68648 0.00000
vt 0.73310 1.00000
vt 0.73310 0.00000
vt 0.93816 1.00000
vt 0.93816 0.00000
vt 0.98478 1.00000
vt 0.98478 0.00000
vt 1.00000 1.00000
vt 1.00000 0.00000
vt 0.00000 0.00000
# 26 texture coordinates

vn 0 -1 0
vn 1 0 0
vn 0 1 0
vn -1 0 0
vn 0 0 1
vn 0 0 -1
# 6 vertex normals

f 21/5/7 22/6/7 10/7/7
f 22/6/8 23/8/8 11/9/8
f 23/8/9 24/10/9 12/11/9
f 24/10/8 25/12/8 13/13/8
f 25/12/7 26/14/7 14/15/7
f 26/14/8 27/16/8 15/17/8
f 27/16/9 28/18/9 16/19/9
f 28/18/10 29/20/10 17/21/10
f 29/20/7 30/22/7 18/23/7
f 30/22/10 31/24/10 19/25/10
f 31/24/9 32/26/9 20/27/9
f 32/26/10 21/28/10 9/29/10
f 33/5/11 43/5/11 44/5/11
f 37/5/11 42/5/11 43/5/11
f 36/5/11 37/5/11 43/5/11
f 34/5/11 36/5/11 43/5/11
f 33/5/11 34/5/11 43/5/11
f 37/5/11 39/5/11 42/5/11
f 40/5/11 41/5/11 42/5/11
f 39/5/11 40/5/11 42/5/11
f 37/5/11 38/5/11 39/5/11
f 34/5/11 35/5/11 36/5/11
f 48/5/12 46/5/12 45/5/12
f 55/5/12 48/5/12 45/5/12
f 56/5/12 55/5/12 45/5/12
f 48/5/12 47/5/12 46/5/12
f 54/5/12 49/5/12 48/5/12
f 55/5/12 54/5/12 48/5/12
f 51/5/12 50/5/12 49/5/12
f 52/5/12 51/5/12 49/5/12
f 54/5/12 52/5/12 49/5/12
f 54/5/12 53/5/12 52/5/12
f 9/30/7 21/5/7 10/7/7
f 10/7/8 22/6/8 11/9/8
f 11/9/9 23/8/9 12/11/9
f 12/11/8 24/10/8 13/13/8
f 13/13/7 25/12/7 14/15/7
f 14/15/8 26/14/8 15/17/8
f 15/17/9 27/16/9 16/19/9
f 16/19/10 28/18/10 17/21/10
f 17/21/7 29/20/7 18/23/7
f 18/23/10 30/22/10 19/25/10
f 19/25/9 31/24/9 20/27/9
f 20/27/10 32/26/10 9/29/10
# 44 facets

