# Blender v2.63 (sub 0) OBJ File: ''
# www.blender.org
o Mesh_Symmetrie_1.001
v 0.049998 -0.049972 -0.370663
v -0.050002 -0.049972 -0.370663
v -0.050002 -0.039999 -0.385218
v 0.049998 -0.106250 -0.370660
v -0.050002 -0.106250 -0.370660
v 0.049999 -0.137301 -0.346405
v -0.050001 -0.137301 -0.346405
v 0.050000 -0.137300 -0.000000
v -0.050000 -0.137300 0.000000
v 0.050000 -0.040001 -0.000000
v -0.050000 -0.040001 0.000000
v 0.049998 -0.039999 -0.385218
v 0.050002 -0.049972 0.370663
v 0.050002 -0.039999 0.385218
v -0.049998 -0.039999 0.385218
v 0.050002 -0.106250 0.370660
v -0.049998 -0.049972 0.370663
v 0.050002 -0.137301 0.346405
v -0.049998 -0.106250 0.370660
v -0.049998 -0.137301 0.346405
v -0.050001 -0.137301 -0.346405
v -0.050000 -0.137300 0.000000
v -0.050000 -0.040001 0.000000
v -0.050002 -0.049972 -0.370663
v -0.050002 -0.039999 -0.385218
v -0.050002 -0.106250 -0.370660
v -0.049998 -0.137301 0.346405
v -0.049998 -0.049972 0.370663
v -0.049998 -0.039999 0.385218
v -0.049998 -0.106250 0.370660
v 0.050000 -0.040001 -0.000000
v 0.049998 -0.049972 -0.370663
v 0.049998 -0.039999 -0.385218
v 0.049999 -0.137301 -0.346405
v 0.049998 -0.106250 -0.370660
v 0.050000 -0.137300 -0.000000
v 0.050002 -0.049972 0.370663
v 0.050002 -0.039999 0.385218
v 0.050002 -0.106250 0.370660
v 0.050002 -0.137301 0.346405
v -0.049998 0.040000 0.450000
v -0.050002 0.040000 -0.450000
v -0.050002 -0.040000 -0.450000
v 0.050002 0.040000 0.450000
v -0.049998 -0.040000 0.450000
v 0.049998 0.040000 -0.450000
v 0.050002 -0.040000 0.450000
v 0.049998 -0.040000 -0.450000
vt 0.018725 0.000000
vt 0.018725 1.000000
vt 0.000000 1.000000
vt 0.078453 0.000000
vt 0.078453 1.000000
vt 0.120269 0.000000
vt 0.120269 1.000000
vt 0.487907 0.000000
vt 0.487907 1.000000
vt 0.591170 0.000000
vt 0.591170 1.000000
vt 1.000000 0.000000
vt 1.000000 1.000000
vt 0.000000 0.000000
vn -0.000002 -0.824929 -0.565236
vn -0.000004 -0.000053 -1.000000
vn -0.000003 -0.615588 -0.788069
vn 0.000000 -1.000000 0.000003
vn 0.000004 -0.000000 1.000000
vn -0.000000 1.000000 0.000005
vn 0.000002 -0.824929 0.565236
vn 0.000004 -0.000053 1.000000
vn 0.000003 -0.615588 0.788068
vn 0.000000 -1.000000 -0.000003
vn -0.000004 0.000000 -1.000000
vn -0.000000 1.000000 -0.000005
vn -1.000000 -0.000000 0.000004
vn 1.000000 0.000000 -0.000004
vn -0.000000 1.000000 0.000000
vn 0.000000 -1.000000 -0.000000
vn -0.000003 -0.615588 -0.788068
vn 0.000003 -0.615588 0.788069
s off
f 1/1/1 2/2/1 3/3/1
f 4/4/2 5/5/2 2/2/2
f 6/6/3 7/7/3 5/5/3
f 8/8/4 9/9/4 7/7/4
f 10/10/5 11/11/5 9/9/5
f 12/12/6 3/13/6 11/11/6
f 13/1/7 14/14/7 15/3/7
f 16/4/8 13/1/8 17/2/8
f 18/6/9 16/4/9 19/5/9
f 8/8/10 18/6/10 20/7/10
f 10/10/11 8/8/11 9/9/11
f 14/12/12 10/10/12 11/11/12
f 21/3/13 22/3/13 23/3/13
f 24/3/13 21/3/13 23/3/13
f 25/3/13 24/3/13 23/3/13
f 24/3/13 26/3/13 21/3/13
f 22/3/13 27/3/13 23/3/13
f 27/3/13 28/3/13 23/3/13
f 28/3/13 29/3/13 23/3/13
f 30/3/13 28/3/13 27/3/13
f 31/3/14 32/3/14 33/3/14
f 34/3/14 35/3/14 32/3/14
f 31/3/14 34/3/14 32/3/14
f 31/3/14 36/3/14 34/3/14
f 37/3/14 31/3/14 38/3/14
f 39/3/14 40/3/14 37/3/14
f 40/3/14 31/3/14 37/3/14
f 36/3/14 31/3/14 40/3/14
f 41/13/13 42/3/13 43/14/13
f 44/13/5 41/3/5 45/14/5
f 46/13/14 44/3/14 47/14/14
f 42/13/11 46/3/11 48/14/11
f 44/13/15 46/3/15 42/14/15
f 45/13/16 43/3/16 48/14/16
f 12/14/1 1/1/1 3/3/1
f 1/1/2 4/4/2 2/2/2
f 4/4/17 6/6/17 5/5/17
f 6/6/4 8/8/4 7/7/4
f 8/8/5 10/10/5 9/9/5
f 10/10/6 12/12/6 11/11/6
f 17/2/7 13/1/7 15/3/7
f 19/5/8 16/4/8 17/2/8
f 20/7/18 18/6/18 19/5/18
f 9/9/10 8/8/10 20/7/10
f 11/11/11 10/10/11 9/9/11
f 15/13/12 14/12/12 11/11/12
f 45/12/13 41/13/13 43/14/13
f 47/12/5 44/13/5 45/14/5
f 48/12/14 46/13/14 47/14/14
f 43/12/11 42/13/11 48/14/11
f 41/12/15 44/13/15 42/14/15
f 47/12/16 45/13/16 48/14/16
